<svg xmlns="http://www.w3.org/2000/svg" viewBox="0 0 27.31 28.24">
  <g>
    <path d="M3.55 12.12c-.45 0-.88.19-1.17.53a9.356 9.356 0 0 0-2.37 6.23c0 5.15 4.21 9.36 9.36 9.36a9.35 9.35 0 0 0 6.62-2.74c.85-.85 1.53-1.85 2-2.98.23-.5.16-1.09-.17-1.53a1.53 1.53 0 0 0-1.42-.6c-.55.07-1.01.43-1.22.95-.32.75-.78 1.44-1.35 2.01a6.261 6.261 0 0 1-4.47 1.85c-3.5 0-6.32-2.81-6.32-6.32 0-1.08.27-2.09.74-2.97.24-.44.53-.85.86-1.23.41-.44.51-1.08.28-1.63-.24-.55-.78-.91-1.38-.92Z"/>
    <path d="M6.75 0C5.02 0 3.61 1.41 3.61 3.14c0 .16.01.32.04.48l1.89 11.66c.12.73.75 1.27 1.49 1.28l9.91.06 3.42 7.95c.32.74 1.15 1.1 1.91.83l4.02-1.43c.79-.28 1.21-1.15.92-1.95a1.518 1.518 0 0 0-1.95-.92l-2.68.95-3.25-7.55c-.24-.56-.78-.92-1.39-.92l-9.62-.06-.15-.92h6.8c.55 0 1.06-.28 1.34-.76.28-.47.28-1.06 0-1.54-.28-.47-.79-.76-1.34-.76h-7.3l-.54-3.31c1.54-.2 2.72-1.52 2.72-3.11 0-1.73-1.4-3.14-3.13-3.14Z"/>
  </g>
</svg>
