<svg xmlns="http://www.w3.org/2000/svg" viewBox="0 0 955.47 245.15">
  <path d="M0 12.38h28.66v111.83h12.81V12.38h28.66V0H0v12.38zM181.8 61.85h-68.14V0h-12.8v124.21h12.8V74.22h68.14v49.99h12.8V0h-12.8v61.85zM300.13 111.83h-56.02V74.22h40.73V61.85h-40.73V12.38h51.78V0h-64.58v124.21h68.82v-12.38zM409.49 74.22h40.73V61.85h-40.73V12.38h51.78V0h-64.58v124.21h68.82v-12.38h-56.02V74.22zM559.54 111.83h-50.5V0h-12.79v124.21h63.29v-12.38zM652.52 111.83h-50.51V0h-12.8v124.21h63.31v-12.38zM694.98 74.22h40.74V61.85h-40.74V12.38h51.78V0h-64.58v124.21H751v-12.38h-56.02V74.22zM941.67 0l-24.59 52.64L892.49 0h-13.8l31.99 68.37v55.84h12.8V68.37L955.47 0h-13.8zM809.09 78.43c4.04 1.36 8.34 2.13 12.83 2.13 22.21 0 40.28-18.07 40.28-40.28S844.13 0 821.88 0h-40.15v.28h-.09l.09 123.93h12.8l.13-49c9.9 28.64 37.36 48.71 68.21 48.71v-12.1c-23.03 0-43.79-13.43-53.78-33.39Zm-14.25-38.21V12.29l28.07-.14c15.5 0 28.06 12.57 28.06 28.07s-12.56 28.07-28.06 28.07-28.07-12.57-28.07-28.07ZM265.32 213.23l-13.49 31.47h6.34l2.97-6.97h12.63l2.97 6.97h6.34l-13.49-31.47h-4.27Zm-1.89 19.11 4-9.31 4 9.31h-8ZM287.13 218.63h8.31v26.07h6.07v-26.07h8.32v-5.4h-22.7v5.4zM363.28 232.88l-6.92-19.65h-4.27l-6.93 19.65-6.52-19.65h-6.11l10.43 31.47h4.27l6.97-19.91 7.01 19.91h4.27l10.43-31.47h-6.11l-6.52 19.65zM391.42 230.54h9.67v-5.4h-9.67v-6.51h12.82v-5.4h-18.89v31.47h19.34v-5.39h-13.27v-8.77zM420.51 221.59c0-2.43 2.56-3.42 4.86-3.42 2.07 0 4.18.9 5.44 2.07l3.15-4.5c-2.97-2.2-5.93-2.97-9.13-2.97-5.21 0-10.38 3.24-10.38 8.86 0 3.55 1.98 5.71 4.45 7.15 4.23 2.47 10.07 2.97 10.07 7.01 0 2.29-1.89 3.96-4.59 3.96-2.88 0-5.62-1.48-7.42-3.46l-3.95 4.13c3.24 2.97 7.15 4.72 11.37 4.72 5.66 0 10.66-3.87 10.66-9.44 0-10.61-14.52-9.03-14.52-14.12ZM442 218.63h8.31v26.07h6.07v-26.07h8.32v-5.4H442v5.4zM488.71 239.76c-6.07 0-10.75-4.68-10.75-10.79s4.5-10.79 10.47-10.79c3.1 0 5.75 1.35 7.64 3.24l3.91-4.13c-2.83-2.74-6.83-4.5-11.51-4.5-9.8 0-16.59 7.15-16.59 16.18s6.88 16.19 16.68 16.19c5.75 0 10.43-2.47 13.22-6.03l-4.18-3.73c-1.84 2.38-4.81 4.36-8.9 4.36ZM533.48 225.14h-15.73v-11.91h-6.07v31.47h6.07v-14.16h15.73v14.16h6.07v-31.47h-6.07v11.91zM558.21 230.54h9.66v-5.4h-9.66v-6.51h12.81v-5.4h-18.88v31.47h19.33v-5.39h-13.26v-8.77zM587.29 221.59c0-2.43 2.56-3.42 4.86-3.42 2.07 0 4.18.9 5.44 2.07l3.15-4.5c-2.97-2.2-5.93-2.97-9.13-2.97-5.21 0-10.38 3.24-10.38 8.86 0 3.55 1.98 5.71 4.45 7.15 4.23 2.47 10.07 2.97 10.07 7.01 0 2.29-1.89 3.96-4.59 3.96-2.88 0-5.62-1.48-7.42-3.46l-3.95 4.13c3.24 2.97 7.15 4.72 11.37 4.72 5.66 0 10.66-3.87 10.66-9.44 0-10.61-14.52-9.03-14.52-14.12ZM608.78 218.63h8.32v26.07h6.07v-26.07h8.31v-5.4h-22.7v5.4zM647.67 230.54h9.66v-5.4h-9.66v-6.51h12.81v-5.4H641.6v31.47h19.33v-5.39h-13.26v-8.77zM690.06 228.43c1.71-1.62 2.79-3.91 2.79-6.43s-1.08-4.81-2.79-6.43c-1.57-1.44-3.64-2.34-6.88-2.34h-11.46v31.47h6.07v-13.94h2.2l11.19 13.94h7.51l-11.78-14.43c1.26-.41 2.29-1.03 3.15-1.84Zm-4.18-4c-.54.59-1.3.94-3.05.94h-5.04v-6.74h5.04c1.75 0 2.52.41 3.05.99.54.59.9 1.49.9 2.43s-.36 1.8-.9 2.38Z"/>
</svg>
