<svg xmlns="http://www.w3.org/2000/svg" viewBox="0 0 31.51 32.16">
  <g>
    <path d="M15.79.01h-.02L.03 7.45H0V11l1.47-.7v12.9h28.6V10.37l1.44.69V7.45L15.79.01ZM4.57 20.11V8.84l11.2-5.3 11.2 5.36v11.21H4.57Z"/>
    <path d="M9.7 14.32h12.09v3.25H9.7zM9.7 9.22h12.09v3.33H9.7zM2.89 29.65c-.77 0-1.3.59-1.3 1.26s.53 1.26 1.3 1.26 1.3-.58 1.3-1.26-.53-1.26-1.3-1.26Zm0 2.06c-.44 0-.77-.46-.77-.82 0-.39.32-.78.77-.78s.77.39.77.78c0 .36-.33.82-.77.82ZM5.78 29.71h-.7v2.39h.51v-.89h.25c.54 0 .84-.25.84-.75 0-.54-.36-.74-.91-.74Zm-.08 1.11h-.1v-.72h.09c.29 0 .48.04.48.35s-.16.37-.47.37ZM8.27 29.71h-.7v2.39h.51v-.89h.25c.54 0 .84-.25.84-.75 0-.54-.36-.74-.91-.74Zm-.08 1.11h-.1v-.72h.09c.29 0 .48.04.48.35s-.16.37-.47.37ZM11.23 29.65c-.77 0-1.3.59-1.3 1.26s.53 1.26 1.3 1.26 1.3-.58 1.3-1.26-.53-1.26-1.3-1.26Zm0 2.06c-.44 0-.77-.46-.77-.82 0-.39.32-.78.77-.78s.77.39.77.78c0 .36-.33.82-.77.82ZM15 30.43c0-.51-.36-.72-.88-.72h-.69v2.39h.51v-.96l.64.96h.62l-.74-1.01c.35-.05.54-.36.54-.66Zm-.99.38h-.07v-.72h.07c.27 0 .48.06.48.35s-.2.37-.48.37ZM15.76 30.12h.53v1.98h.52v-1.98h.53v-.41h-1.58v.41zM19.6 31.05c0 .29-.03.71-.46.71s-.46-.42-.46-.71v-1.34h-.51v1.43c0 .58.27 1.02.98 1.02s.98-.44.98-1.02v-1.43h-.51v1.34ZM22.88 31.32h-.01l-1.38-1.67h-.37v2.45h.51v-1.62h.01l1.38 1.67h.37v-2.44h-.51v1.61zM24.41 29.71h.51v2.39h-.51zM25.75 30.12h.53v1.98h.52v-1.98h.53v-.41h-1.58v.41zM28.97 30.54l-.46-.83h-.59l.81 1.29v1.1h.51V31l.83-1.29h-.59l-.51.83zM3.07 26.42v-.41H1.71v2.39h1.36V28h-.85v-.65h.82v-.41h-.82v-.52h.85zM5.48 28.5l.52-.05-.36-.39c.2-.24.31-.54.31-.87 0-.67-.53-1.26-1.3-1.26s-1.3.59-1.3 1.26.53 1.26 1.3 1.26c.24 0 .47-.05.65-.16l.18.2Zm-.46-1.06-.53.04.43.45c-.07.04-.18.08-.28.08-.5 0-.77-.39-.77-.78s.27-.84.77-.84c.46 0 .77.41.77.8 0 .16-.05.36-.16.49l-.23-.24ZM8.2 27.44v-1.43h-.51v1.34c0 .29-.03.71-.46.71s-.46-.42-.46-.71v-1.34h-.51v1.43c0 .58.27 1.02.98 1.02s.98-.44.98-1.02ZM10.07 27.9l.2.5h.55l-1-2.45h-.4L8.39 28.4h.54l.22-.5h.91Zm-.48-1.25.33.87H9.3l.29-.87ZM11.04 26.01v2.39h1.24V28h-.73v-1.99h-.51zM14.52 26.01v2.39h.52v-1.07h.94v1.07h.52v-2.39h-.52v.94h-.94v-.94h-.52zM19.41 27.2c0-.67-.53-1.26-1.3-1.26s-1.3.59-1.3 1.26.53 1.26 1.3 1.26 1.3-.58 1.3-1.26Zm-1.3.8c-.44 0-.77-.46-.77-.82 0-.39.32-.78.77-.78s.77.39.77.78c0 .36-.33.82-.77.82ZM21.66 27.44v-1.43h-.51v1.34c0 .29-.03.71-.46.71s-.46-.42-.46-.71v-1.34h-.51v1.43c0 .58.27 1.02.98 1.02s.98-.44.98-1.02ZM22.61 26.61c0-.16.16-.27.32-.27s.3.08.39.2l.24-.32c-.16-.16-.48-.27-.72-.27-.44 0-.77.32-.77.72 0 .37.25.53.59.65.21.07.46.14.46.39 0 .18-.13.35-.34.35-.22 0-.4-.16-.47-.35l-.33.29c.18.28.45.47.81.47.54 0 .86-.34.86-.82 0-.8-1.04-.63-1.04-1.04ZM23.98 26.01h.51v2.39h-.51zM27.2 28.45v-2.44h-.51v1.61h-.01l-1.39-1.67h-.37v2.45h.52v-1.62l1.39 1.67h.37zM29.95 27.19v-.06h-1.13v.38h.56c-.01.29-.28.54-.6.54-.5 0-.74-.44-.74-.84s.24-.86.74-.86c.27 0 .5.16.6.38l.45-.22c-.2-.36-.59-.57-1.04-.57-.78 0-1.28.59-1.28 1.27s.48 1.25 1.25 1.25c.82 0 1.2-.6 1.2-1.27Z"/>
  </g>
</svg>
