<svg xmlns="http://www.w3.org/2000/svg" viewBox="0 0 706.25 363.6">
  <path d="M679.81 310.7H495.8a144.04 144.04 0 0 0-11.73-36.03l148.89-108.16c11.82-8.58 14.43-25.11 5.85-36.93-8.57-11.82-25.11-14.47-36.93-5.85l-148.94 108.2c-9.15-8.69-19.43-16.2-30.59-22.28l56.88-175.04c4.51-13.89-3.1-28.8-16.98-33.32-13.86-4.46-28.79 3.1-33.32 16.98l-56.87 175.01c-6.2-.81-12.52-1.23-18.93-1.23s-12.74.42-18.94 1.24L277.32 18.28C272.79 4.38 257.85-3.19 244 1.3c-13.89 4.51-21.5 19.43-16.98 33.32l56.88 175.05a145.785 145.785 0 0 0-30.6 22.29L104.36 123.74c-11.83-8.62-28.37-5.97-36.93 5.85-8.58 11.82-5.97 28.34 5.85 36.93L222.17 274.7c-5.4 11.28-9.39 23.37-11.72 36.02H26.44C11.84 310.71 0 322.54 0 337.15s11.83 26.44 26.44 26.44h200.05c1.37.01 2.72-.09 4.04-.29 1.29.19 2.6.29 3.94.29h237.31c2.51 0 4.93-.36 7.22-1.01 2.3.65 4.72 1.01 7.22 1.01h193.59c14.61 0 26.44-11.83 26.44-26.44s-11.83-26.44-26.44-26.44Zm-415.03 0c11.4-38 46.69-65.77 88.35-65.77s76.95 27.77 88.35 65.77h-176.7Z"/>
</svg>
